# xmcd CD database file
#
# Track frame offsets:
#	150
#	29917
#	71784
#	99049
#	121359
#	167435
#	186853
#	215213
#
# Disc length: 3153 seconds
#
# Revision: 1
# Processed by: cddbd v1.4PL0 Copyright (c) Steve Scherf et al.
# Submitted via: CDex 1.40Release
#
DISCID=730c4f08
DTITLE=Henry Cooper - Automatic Trouble ...Live
DYEAR=2000
DGENRE=Blues
TTITLE0=Love the Life you're Living
TTITLE1=After All
TTITLE2=Baby Please
TTITLE3=King Me
TTITLE4=No Way
TTITLE5=Sittin' On It
TTITLE6=Don't Want to Move
TTITLE7=Automatic Trouble
EXTD=YEAR: 2000 ID3G: 0
EXTT0=
EXTT1=
EXTT2=
EXTT3=
EXTT4=
EXTT5=
EXTT6=
EXTT7=
PLAYORDER=
